<svg xmlns="http://www.w3.org/2000/svg" version="1.0" width="512.000000pt" height="512.000000pt" viewBox="0 0 512.000000 512.000000" preserveAspectRatio="xMidYMid meet">

<g transform="translate(0.000000,512.000000) scale(0.100000,-0.100000)" fill="#6b56c6" stroke="none">
<path d="M570 4754 c-143 -39 -258 -155 -295 -300 -14 -54 -15 -267 -13 -1920 l3 -1859 21 -52 c47 -114 148 -212 257 -250 49 -17 151 -18 2017 -18 1866 0 1968 1 2017 18 113 39 221 147 260 260 17 49 18 148 18 1927 0 1779 -1 1878 -18 1927 -38 109 -136 210 -250 257 l-52 21 -1955 2 c-1697 2 -1962 0 -2010 -13z m3976 -125 c68 -26 136 -89 167 -157 21 -44 22 -65 25 -309 l3 -263 -2181 0 -2181 0 3 263 3 262 28 57 c33 68 91 120 161 147 50 20 91 20 1983 20 l1932 1 57 -21z m192 -2391 l-3 -1543 -22 -47 c-30 -66 -102 -132 -169 -157 -55 -21 -60 -21 -1984 -21 l-1929 0 -57 21 c-68 26 -136 89 -167 157 l-22 47 -3 1543 -2 1542 2180 0 2180 0 -2 -1542z" fill="#6b56c6"/>
<path d="M795 4454 c-166 -86 -144 -323 33 -369 185 -48 327 170 205 315 -54 65 -168 91 -238 54z m144 -130 c27 -34 27 -66 -1 -99 -32 -37 -83 -37 -115 -1 -28 34 -29 65 -2 100 16 20 29 26 59 26 30 0 43 -6 59 -26z" fill="#6b56c6"/>
<path d="M1323 4444 c-133 -79 -127 -276 11 -346 93 -47 214 -10 264 82 32 61 28 150 -10 208 -54 81 -180 108 -265 56z m157 -114 c37 -37 24 -105 -23 -125 -84 -35 -152 78 -80 133 26 19 80 15 103 -8z" fill="#6b56c6"/>
<path d="M1885 4454 c-166 -86 -144 -323 33 -369 185 -48 327 170 205 315 -54 65 -168 91 -238 54z m144 -130 c27 -34 27 -66 -1 -99 -32 -37 -83 -37 -115 -1 -28 34 -29 65 -2 100 16 20 29 26 59 26 30 0 43 -6 59 -26z" fill="#6b56c6"/>
<path d="M1435 3432 c-197 -68 -352 -264 -381 -481 -8 -61 9 -163 40 -239 13 -31 29 -86 36 -122 13 -74 61 -178 96 -211 29 -27 33 -75 7 -82 -10 -3 -36 -8 -58 -12 -131 -22 -252 -129 -304 -268 -19 -53 -21 -77 -21 -297 0 -226 1 -240 19 -250 13 -6 227 -10 625 -10 l605 0 15 22 c22 31 22 381 1 482 -32 152 -155 283 -295 315 -25 5 -57 12 -72 16 -39 8 -37 47 3 93 41 47 77 126 90 199 6 32 30 119 54 193 85 264 87 363 6 440 -20 19 -53 58 -73 86 -72 98 -160 144 -276 144 -37 -1 -90 -8 -117 -18z m237 -138 c24 -17 59 -56 78 -88 20 -33 46 -63 58 -67 27 -10 36 -46 28 -114 -10 -91 -17 -94 -42 -20 -35 105 -41 108 -187 113 -186 6 -292 -31 -388 -136 l-49 -53 7 33 c27 147 130 279 264 343 77 37 170 32 231 -11z m7 -317 c22 -57 53 -228 53 -292 0 -172 -107 -305 -247 -305 -138 0 -233 114 -243 291 -5 105 12 167 64 228 62 72 136 99 272 100 88 1 93 0 101 -22z m-79 -734 c0 -41 -41 -75 -96 -80 -76 -8 -134 29 -134 84 0 16 11 18 115 18 112 0 115 -1 115 -22z m-313 -106 c95 -136 336 -126 409 16 13 25 19 27 52 21 99 -17 185 -81 229 -172 27 -55 28 -64 31 -239 l4 -183 -66 0 -66 0 0 155 c0 152 -1 156 -25 180 -28 29 -42 31 -73 9 -21 -15 -22 -21 -22 -180 l0 -164 -270 0 -270 0 0 144 c0 158 -7 190 -44 208 -20 9 -30 8 -51 -6 l-25 -16 0 -165 0 -165 -65 0 -65 0 0 178 c0 202 9 244 66 310 42 49 93 82 154 98 64 18 63 18 97 -29z" fill="#6b56c6"/>
<path d="M2418 3183 c-8 -10 -18 -24 -22 -30 -7 -13 10 -53 28 -65 6 -4 416 -8 912 -8 860 0 902 1 917 18 22 24 21 65 -1 85 -17 16 -95 17 -919 17 -845 0 -901 -1 -915 -17z" fill="#6b56c6"/>
<path d="M2414 2605 c-27 -27 -26 -59 4 -82 12 -10 211 -13 918 -13 993 0 934 -4 934 60 0 63 46 60 -938 60 l-893 0 -25 -25z" fill="#6b56c6"/>
<path d="M2420 2042 c-25 -20 -30 -63 -10 -87 11 -13 124 -15 917 -15 604 0 911 3 924 10 13 7 19 21 19 45 0 69 55 65 -936 65 -846 0 -893 -1 -914 -18z" fill="#6b56c6"/>
<path d="M2431 1477 c-31 -16 -42 -48 -27 -78 l12 -24 913 -3 c686 -1 917 1 928 10 23 19 13 80 -17 95 -36 18 -1774 19 -1809 0z" fill="#6b56c6"/>
<path d="M861 896 c-21 -25 -9 -79 19 -93 37 -19 3323 -19 3360 0 28 14 40 68 19 93 -18 21 -3380 21 -3398 0z" fill="#6b56c6"/>
</g>
</svg>